<?xml version="1.0" standalone="no"?>
<!DOCTYPE svg PUBLIC "-//W3C//DTD SVG 20010904//EN"
 "http://www.w3.org/TR/2001/REC-SVG-20010904/DTD/svg10.dtd">
<svg version="1.0" xmlns="http://www.w3.org/2000/svg"
 width="512.000000pt" height="512.000000pt" viewBox="0 0 512.000000 512.000000"
 preserveAspectRatio="xMidYMid meet">
<metadata>
Created by potrace 1.11, written by Peter Selinger 2001-2013
</metadata>
<g transform="translate(0.000000,512.000000) scale(0.100000,-0.100000)"
fill="#000000" stroke="none">
<path d="M0 2560 l0 -2560 2560 0 2560 0 0 2560 0 2560 -2560 0 -2560 0 0
-2560z m2770 1134 c469 -89 835 -455 924 -924 21 -107 21 -313 0 -420 -89
-469 -455 -835 -924 -924 -107 -21 -313 -21 -420 0 -469 89 -835 455 -924 924
-21 107 -21 313 0 420 87 463 438 820 904 920 110 24 326 26 440 4z"/>
<path d="M2373 3596 c-210 -40 -390 -134 -545 -284 -137 -132 -242 -313 -289
-497 -20 -77 -24 -115 -24 -255 0 -194 19 -286 90 -437 178 -380 542 -613 955
-613 279 0 529 102 732 298 137 132 242 313 289 497 20 77 24 115 24 255 0
140 -4 178 -24 255 -47 184 -152 365 -289 497 -133 129 -300 224 -472 268
-109 28 -340 36 -447 16z m402 -360 c112 -36 198 -89 285 -176 87 -87 139
-172 177 -285 24 -71 27 -95 27 -215 0 -120 -3 -144 -27 -215 -38 -113 -90
-198 -177 -285 -87 -87 -172 -139 -285 -177 -71 -24 -95 -27 -215 -27 -120 0
-144 3 -215 27 -113 38 -198 90 -285 177 -87 87 -139 172 -177 285 -24 71 -27
95 -27 215 0 120 3 144 27 215 82 246 276 422 532 481 93 21 261 12 360 -20z"/>
<path d="M2431 3155 c-291 -66 -497 -338 -478 -630 18 -256 187 -470 432 -548
54 -17 95 -22 175 -22 171 0 311 57 429 176 119 118 176 258 176 429 0 80 -5
121 -22 175 -61 192 -215 347 -403 406 -85 27 -225 33 -309 14z m254 -296 c71
-27 147 -103 176 -178 84 -216 -71 -444 -301 -444 -285 0 -432 345 -233 547
99 101 221 126 358 75z"/>
<path d="M2465 2763 c-82 -43 -125 -113 -125 -203 0 -130 90 -220 220 -220
130 0 220 90 220 220 0 90 -42 160 -122 201 -47 24 -150 25 -193 2z"/>
</g>
</svg>
